Exit code: 0
Wall time: 1.8 seconds
Output:
<svg xmlns="http://www.w3.org/2000/svg" width="620" height="420" viewBox="0 0 620 420" font-family="ui-monospace,SFMono-Regular,Menlo,Consolas,monospace">
<defs><linearGradient id="bg" x1="0" y1="0" x2="1" y2="1"><stop offset="0" stop-color="#060a08"/><stop offset="1" stop-color="#111827"/></linearGradient></defs>
<rect width="620" height="420" rx="18" fill="url(#bg)" stroke="#ef4444" stroke-opacity=".45"/>
<circle cx="22" cy="18" r="4" fill="#ef4444"/><circle cx="36" cy="18" r="4" fill="#f59e0b"/><circle cx="50" cy="18" r="4" fill="#22c55e"/>
<text x="310" y="21" text-anchor="middle" fill="#64748b" font-size="10">session://redteam-profile</text>
<text x="28" y="62" fill="#22c55e" font-size="15">gustavo@redteam:~$ whoami</text>
<text x="28" y="96" fill="#e2e8f0" font-size="21" font-weight="700">Gustavo Oliveira</text>
<text x="28" y="126" fill="#94a3b8" font-size="14">Cybersecurity Student</text>
<text x="28" y="149" fill="#94a3b8" font-size="14">Red Team ? Web &amp; API Security</text>
<line x1="28" y1="174" x2="592" y2="174" stroke="#334155"/>
<text x="28" y="205" fill="#ef4444" font-size="13">FOCUS</text>
<text x="118" y="205" fill="#cbd5e1" font-size="13">Offensive Security / AppSec</text>
<text x="28" y="235" fill="#ef4444" font-size="13">BASE</text>
<text x="118" y="235" fill="#cbd5e1" font-size="13">Python ? Linux ? Networks ? APIs</text>
<text x="28" y="265" fill="#ef4444" font-size="13">MODE</text>
<text x="118" y="265" fill="#cbd5e1" font-size="13">Building labs &amp; documenting TTPs</text>
<text x="28" y="295" fill="#ef4444" font-size="13">STATUS</text>
<text x="118" y="295" fill="#22c55e" font-size="13">LEARNING // ACTIVE</text>
<line x1="28" y1="321" x2="592" y2="321" stroke="#334155"/>
<text x="28" y="354" fill="#22c55e" font-size="13">gustavo@redteam:~$</text>
<rect x="199" y="342" width="8" height="16" fill="#22c55e"><animate attributeName="opacity" values="1;0;1" dur="1s" repeatCount="indefinite"/></rect>
<text x="28" y="392" fill="#64748b" font-size="11">Vit?ria da Conquista, BA ? github.com/guuszz</text>
</svg>
